<?xml version="1.0" standalone="no"?><!DOCTYPE svg PUBLIC "-//W3C//DTD SVG 1.1//EN" "http://www.w3.org/Graphics/SVG/1.1/DTD/svg11.dtd"><svg t="1560876379408" class="icon" style="" viewBox="0 0 1024 1024" version="1.1" xmlns="http://www.w3.org/2000/svg" p-id="3558" xmlns:xlink="http://www.w3.org/1999/xlink" width="200" height="200"><defs><style type="text/css"></style></defs><path d="M792.4 297.3c-8.5 0-16.6-3.4-22.6-9.4l-90.4-90.4c-12.5-12.5-12.5-32.7 0-45.2s32.7-12.5 45.2 0l67.8 67.8 113-113c12.5-12.5 32.7-12.5 45.2 0s12.5 32.7 0 45.2L815 288c-6 6-14.1 9.3-22.6 9.3zM544 255H96c-17.7 0-32-14.3-32-32s14.3-32 32-32h448c17.7 0 32 14.3 32 32s-14.3 32-32 32zM792.4 618c-8.5 0-16.6-3.4-22.6-9.4l-90.4-90.4c-12.5-12.5-12.5-32.7 0-45.2s32.7-12.5 45.2 0l67.8 67.8 113-113c12.5-12.5 32.7-12.5 45.2 0s12.5 32.7 0 45.2L815 608.7c-6 6-14.1 9.3-22.6 9.3zM544 576H96c-17.7 0-32-14.3-32-32s14.3-32 32-32h448c17.7 0 32 14.3 32 32s-14.3 32-32 32zM792.4 937.8c-8.5 0-16.6-3.4-22.6-9.4L679.4 838c-12.5-12.5-12.5-32.7 0-45.2s32.7-12.5 45.2 0l67.8 67.8 113-113c12.5-12.5 32.7-12.5 45.2 0s12.5 32.7 0 45.2L815 928.4c-6 6-14.1 9.4-22.6 9.4zM544 896H96c-17.7 0-32-14.3-32-32s14.3-32 32-32h448c17.7 0 32 14.3 32 32s-14.3 32-32 32z" p-id="3559" fill="#ffffff"></path></svg>