<?xml version="1.0" standalone="no"?><!DOCTYPE svg PUBLIC "-//W3C//DTD SVG 1.1//EN" "http://www.w3.org/Graphics/SVG/1.1/DTD/svg11.dtd"><svg t="1560867160614" class="icon" style="" viewBox="0 0 1024 1024" version="1.1" xmlns="http://www.w3.org/2000/svg" p-id="5874" xmlns:xlink="http://www.w3.org/1999/xlink" width="200" height="200"><defs><style type="text/css"></style></defs><path d="M512 0C229.232 0 0 229.232 0 512c0 282.768 229.232 512 512 512s512-229.232 512-512C1024 229.232 794.768 0 512 0zM512 992C246.896 992 32 777.104 32 512S246.896 32 512 32s480 214.896 480 480S777.104 992 512 992z" p-id="5875" fill="#ffffff"></path><path d="M320 512m-48 0a3 3 0 1 0 96 0 3 3 0 1 0-96 0Z" p-id="5876" fill="#ffffff"></path><path d="M512 512m-48 0a3 3 0 1 0 96 0 3 3 0 1 0-96 0Z" p-id="5877" fill="#ffffff"></path><path d="M704 512m-48 0a3 3 0 1 0 96 0 3 3 0 1 0-96 0Z" p-id="5878" fill="#ffffff"></path></svg>