<?xml version="1.0" standalone="no"?><!DOCTYPE svg PUBLIC "-//W3C//DTD SVG 1.1//EN" "http://www.w3.org/Graphics/SVG/1.1/DTD/svg11.dtd"><svg t="1560869207624" class="icon" style="" viewBox="0 0 1025 1024" version="1.1" xmlns="http://www.w3.org/2000/svg" p-id="6831" xmlns:xlink="http://www.w3.org/1999/xlink" width="200.1953125" height="200"><defs><style type="text/css"></style></defs><path d="M512.001074 142.293459l381.02485 375.222426c-30.419236 16.693995-51.043938 48.61347-51.043938 85.30178l0 292.45959-164.992503 0L676.989483 667.807889c0-53.757877-44.404409-97.487895-98.991204-97.487895l-131.996458 0c-54.585771 0-98.992227 43.728995-98.992227 97.487895l0 227.469366-164.990456 0L182.019138 602.817665c0-36.689334-20.624702-68.607785-51.041892-85.30178L512.001074 142.293459M512.001074 63.907514c-8.443704 0-16.95188 3.109977-23.333524 9.455803l-481.308552 473.982351c-12.822642 12.631274-8.442681 22.974326 9.669684 22.974326l65.995159 0c18.112365 0 32.998091 14.599187 32.998091 32.49767L116.021933 927.772879c0 17.896437 14.887773 32.49767 32.999115 32.49767l230.987662 0c18.108272 0 32.997068-14.601233 32.997068-32.49767L413.005777 667.807889c0-17.897461 14.887773-32.4946 32.996044-32.4946l131.996458 0c18.107248 0 32.996044 14.59714 32.996044 32.4946L610.994324 927.772879c0 17.896437 14.887773 32.49767 32.999115 32.49767l230.987662 0c18.107248 0 32.997068-14.601233 32.997068-32.49767L907.978168 602.817665c0-17.898484 14.888796-32.49767 32.996044-32.49767l65.999252 0c18.108272 0 22.492326-10.343052 9.666614-22.974326l-481.308552-473.982351C528.949884 67.017491 520.443755 63.907514 512.001074 63.907514L512.001074 63.907514z" p-id="6832" fill="#ffffff"></path></svg>