<?xml version="1.0" standalone="no"?><!DOCTYPE svg PUBLIC "-//W3C//DTD SVG 1.1//EN" "http://www.w3.org/Graphics/SVG/1.1/DTD/svg11.dtd"><svg t="1560867066074" class="icon" style="" viewBox="0 0 1024 1024" version="1.1" xmlns="http://www.w3.org/2000/svg" p-id="4817" xmlns:xlink="http://www.w3.org/1999/xlink" width="200" height="200"><defs><style type="text/css"></style></defs><path d="M531.903 493.674c45.511-34.224 74.881-88.716 74.881-149.883 0-103.402-84.105-187.506-187.506-187.506s-187.506 84.105-187.506 187.506c0 61.167 29.491 115.659 74.881 149.883-41.142 15.655-78.885 40.050-111.047 72.090-59.833 59.833-92.721 139.203-92.721 223.673 0 17.718 0 36.409 0.122 53.763 0.122 16.020 13.107 29.006 29.127 29.006h574.169c16.020 0 29.127-12.986 29.127-29.006v-53.643c0-84.468-32.89-163.962-92.601-223.673-32.039-32.161-69.783-56.556-110.926-72.211zM289.906 343.913c0-71.239 58.012-129.251 129.251-129.251s129.251 58.012 129.251 129.251-58.012 129.251-129.251 129.251-129.251-58.012-129.251-129.251zM677.296 790.043v23.908h-516.157v-24.394c0-142.237 115.78-258.017 258.017-258.017s258.017 115.78 258.017 258.017v0.485z" fill="#ffffff" p-id="4818"></path><path d="M850.845 583.361c-30.098-40.414-70.027-73.182-115.052-95.269 12.865-11.53 24.030-24.88 33.253-39.564 18.447-29.37 28.157-63.351 28.157-98.062 0-41.021-13.107-79.857-37.987-112.261-24.030-31.434-58.012-54.735-95.877-65.536-12.865-3.762-26.336 3.762-29.977 16.626-3.762 12.865 3.762 26.336 16.626 29.977 58.132 16.748 98.668 70.634 98.668 131.194 0 51.7-28.641 98.304-74.759 121.727-8.738 4.491-13.957 13.836-13.229 23.666 0.85 9.83 7.524 18.205 16.869 21.117 111.897 35.074 187.141 137.626 187.141 254.983v54.25c0 13.349 10.801 24.272 24.151 24.394h0.122c13.349 0 24.272-10.801 24.272-24.151v-54.492c0.122-68.571-21.482-133.742-62.381-188.598z" fill="#ffffff" p-id="4819"></path></svg>