<?xml version="1.0" standalone="no"?><!DOCTYPE svg PUBLIC "-//W3C//DTD SVG 1.1//EN" "http://www.w3.org/Graphics/SVG/1.1/DTD/svg11.dtd"><svg t="1561307625963" class="icon" viewBox="0 0 1024 1024" version="1.1" xmlns="http://www.w3.org/2000/svg" p-id="1124" xmlns:xlink="http://www.w3.org/1999/xlink" width="200" height="200"><defs><style type="text/css"></style></defs><path d="M747.976 448.422c0 74.423-27.088 142.587-71.953 195.068 0 0 160.97 161.187 191.222 190.813 24.86 24.325-3.653 62.104-35.777 27.934-19.336-20.584-188.058-186.091-188.058-186.091-52.573 45.263-120.961 72.619-195.767 72.619-165.871 0-300.332-134.502-300.332-300.344 0-165.843 134.461-300.32 300.332-300.32 165.872 0 300.333 134.478 300.333 300.32zM447.642 195.705c-139.54 0-252.705 113.16-252.705 252.695 0 139.58 113.165 252.74 252.705 252.74 139.584 0 252.75-113.161 252.75-252.74 0-139.535-113.165-252.695-252.75-252.695z" fill="#8a8a8a" p-id="1125"></path></svg>